<?xml version="1.0" standalone="no"?>
<!DOCTYPE svg PUBLIC "-//W3C//DTD SVG 20010904//EN"
 "http://www.w3.org/TR/2001/REC-SVG-20010904/DTD/svg10.dtd">
<svg version="1.0" xmlns="http://www.w3.org/2000/svg"
 width="270.000000pt" height="270.000000pt" viewBox="0 0 270.000000 270.000000"
 preserveAspectRatio="xMidYMid meet">

<g transform="translate(0.000000,270.000000) scale(0.100000,-0.100000)"
fill="#000000" stroke="none">
<path d="M1309 2647 c-44 -13 -105 -54 -122 -83 -4 -7 -36 -27 -71 -44 l-64
-32 -47 28 c-39 23 -59 27 -119 28 -99 1 -153 -22 -215 -90 -100 -109 -114
-218 -44 -345 2 -4 -21 -20 -50 -37 -121 -69 -144 -239 -40 -303 19 -12 36
-19 39 -17 2 3 -2 20 -10 39 -8 19 -17 55 -21 82 -6 40 -3 56 20 103 26 53 90
114 121 114 24 0 25 20 5 76 -12 30 -21 65 -21 78 0 63 68 157 135 187 57 26
112 24 175 -8 l54 -27 15 25 c26 41 66 74 132 110 61 32 69 34 164 34 93 0
103 -2 150 -30 63 -37 130 -105 157 -159 11 -23 22 -43 24 -45 2 -2 17 8 34
22 88 74 207 52 267 -50 23 -39 25 -51 19 -104 -6 -59 -5 -60 17 -52 12 4 52
8 88 8 57 0 71 -4 103 -29 91 -69 129 -170 107 -279 -7 -34 -22 -81 -33 -104
-24 -49 -20 -62 14 -39 32 23 104 20 144 -5 50 -30 74 -77 74 -140 0 -63 -21
-103 -76 -145 -30 -24 -49 -29 -106 -32 l-69 -4 24 -27 c67 -71 86 -162 52
-244 -18 -44 -74 -100 -123 -123 -46 -21 -52 -30 -52 -74 0 -20 -6 -59 -14
-88 -17 -67 -2 -67 28 1 22 50 27 55 84 75 141 52 219 195 189 347 l-8 41 52
33 c91 59 139 169 125 284 -12 90 -83 178 -174 216 -28 12 -28 12 -28 104 0
78 -4 100 -25 147 -24 51 -94 130 -136 154 -10 5 -45 17 -78 26 -55 14 -62 19
-83 60 -65 123 -149 180 -268 181 -43 1 -85 -5 -108 -15 -21 -9 -39 -16 -41
-16 -1 0 -16 23 -34 50 -72 111 -215 170 -332 137z"/>
<path d="M1227 2283 c-126 -127 -161 -185 -177 -295 -9 -64 3 -133 37 -208 11
-25 26 -59 33 -77 6 -17 20 -39 31 -49 10 -9 19 -22 19 -28 0 -22 -106 101
-145 169 -35 60 -45 70 -71 73 -60 6 -104 -90 -111 -243 -5 -91 -3 -105 20
-155 13 -30 45 -82 71 -114 25 -33 46 -66 46 -73 0 -8 7 -16 15 -19 8 -4 15
-11 15 -17 0 -5 -8 -3 -18 6 -10 10 -24 17 -30 17 -6 0 -48 40 -93 90 -46 49
-95 94 -111 101 -71 29 -114 -65 -106 -231 4 -89 8 -104 47 -183 47 -97 127
-191 216 -252 30 -21 55 -42 55 -46 0 -5 9 -17 21 -27 20 -19 20 -19 -19 -12
-23 4 -75 32 -128 69 -69 48 -95 61 -119 59 -29 -3 -30 -4 -33 -64 -2 -48 4
-79 26 -141 40 -108 96 -190 206 -298 100 -98 333 -272 346 -259 17 18 37 464
61 1350 11 438 25 571 30 299 3 -174 6 -249 9 -270 1 -5 1 -60 0 -121 -1 -62
2 -144 6 -183 6 -61 9 -71 23 -65 40 16 53 14 21 -4 l-35 -19 -7 -174 c-4 -95
-4 -177 1 -182 9 -9 65 15 181 78 110 61 93 44 -45 -44 -60 -39 -119 -77 -131
-85 -20 -14 -21 -26 -28 -285 -7 -256 -6 -272 12 -315 17 -38 26 -46 56 -52
100 -18 222 50 345 192 143 166 235 354 286 580 23 102 26 136 23 239 -4 127
-13 156 -65 219 -26 31 -26 47 -5 130 8 29 7 63 -4 129 -21 130 -62 188 -149
211 l-47 12 -27 80 c-33 96 -58 142 -147 261 -77 103 -281 313 -305 313 -8 0
-55 -39 -102 -87z"/>
<path d="M285 1691 c-30 -23 -62 -60 -80 -92 -26 -47 -30 -64 -30 -134 0 -75
3 -85 35 -138 34 -56 105 -135 114 -126 3 2 -12 38 -32 78 -32 65 -37 85 -40
160 -4 101 17 177 67 240 51 64 39 68 -34 12z"/>
<path d="M496 1593 c-45 -12 -94 -53 -117 -100 -30 -59 -32 -150 -5 -204 19
-41 104 -134 113 -125 3 3 -8 37 -26 76 -57 123 -41 242 41 303 18 14 43 28
56 32 55 16 -2 33 -62 18z"/>
</g>
</svg>
